<svg id="svg" version="1.1" xmlns="http://www.w3.org/2000/svg" xmlns:xlink="http://www.w3.org/1999/xlink" width="400" height="200" viewBox="0, 0, 400,200"><g id="svgg"><path id="path0" d="M105.400 13.405 C 104.795 13.486,103.850 13.645,103.300 13.758 C 102.750 13.871,101.535 14.098,100.600 14.263 C 99.665 14.427,98.495 14.699,98.000 14.867 C 97.505 15.035,96.650 15.264,96.100 15.377 C 95.550 15.489,94.740 15.667,94.300 15.771 C 93.860 15.876,92.970 16.067,92.323 16.196 C 91.675 16.325,90.685 16.633,90.123 16.882 C 89.166 17.304,88.502 17.516,86.650 17.993 C 86.238 18.099,85.675 18.246,85.400 18.320 C 85.125 18.393,84.090 18.835,83.100 19.302 C 82.110 19.770,81.075 20.219,80.800 20.302 C 80.525 20.385,80.061 20.621,79.769 20.826 C 79.477 21.032,79.162 21.200,79.069 21.201 C 78.976 21.201,78.457 21.426,77.916 21.701 C 77.375 21.975,76.835 22.201,76.716 22.201 C 76.597 22.202,76.230 22.350,75.900 22.531 C 75.570 22.711,74.524 23.246,73.576 23.718 C 72.627 24.191,71.727 24.696,71.576 24.840 C 71.424 24.985,70.625 25.447,69.800 25.866 C 68.975 26.286,68.165 26.750,68.000 26.897 C 67.835 27.044,67.025 27.520,66.200 27.954 C 64.465 28.867,61.655 30.497,60.082 31.503 C 59.483 31.886,58.910 32.200,58.810 32.200 C 58.710 32.200,58.510 32.316,58.364 32.457 C 58.026 32.787,55.023 35.175,54.286 35.700 C 53.086 36.555,51.852 37.593,50.729 38.688 C 50.086 39.317,49.321 39.984,49.029 40.171 C 48.462 40.535,47.250 41.602,45.921 42.906 C 43.531 45.251,42.783 48.110,44.144 49.692 C 45.007 50.696,47.680 50.774,50.912 49.890 C 51.566 49.711,52.418 49.487,52.807 49.391 C 53.196 49.296,54.051 48.981,54.707 48.693 C 55.363 48.404,56.125 48.075,56.400 47.961 C 56.675 47.847,57.080 47.659,57.300 47.543 C 57.520 47.427,58.240 47.069,58.900 46.747 C 61.125 45.661,61.497 45.473,62.400 44.976 C 62.895 44.703,63.661 44.375,64.103 44.246 C 64.545 44.117,65.604 43.651,66.457 43.209 C 71.010 40.854,75.609 41.313,76.386 44.200 C 77.220 47.300,77.216 46.520,76.426 51.800 C 76.319 52.515,76.126 54.045,75.997 55.200 C 75.742 57.486,75.236 60.182,75.001 60.500 C 74.847 60.709,74.793 60.932,74.300 63.400 C 74.135 64.225,73.903 65.305,73.785 65.800 C 73.666 66.295,73.457 67.240,73.320 67.900 C 73.183 68.560,73.022 69.235,72.963 69.400 C 72.659 70.253,72.402 71.221,72.192 72.300 C 71.535 75.671,71.275 76.709,70.863 77.594 C 70.685 77.976,70.333 79.236,70.080 80.394 C 69.586 82.661,69.339 83.505,68.845 84.600 C 68.671 84.985,68.325 86.245,68.074 87.400 C 67.529 89.916,67.377 90.504,66.839 92.200 C 66.612 92.915,66.369 93.905,66.299 94.400 C 66.229 94.895,66.098 95.570,66.008 95.900 C 65.918 96.230,65.690 97.220,65.501 98.100 C 65.313 98.980,64.997 100.195,64.798 100.800 C 64.600 101.405,64.381 102.260,64.312 102.700 C 63.976 104.848,63.265 107.695,62.814 108.700 C 62.616 109.140,62.391 109.849,62.314 110.275 C 62.176 111.031,61.291 112.600,61.003 112.600 C 60.923 112.600,60.632 112.803,60.355 113.050 C 59.429 113.878,58.997 114.200,58.812 114.200 C 58.711 114.200,58.510 114.316,58.364 114.459 C 58.219 114.601,57.515 115.065,56.800 115.490 C 56.085 115.914,55.185 116.495,54.800 116.779 C 54.415 117.064,53.626 117.544,53.046 117.844 C 52.467 118.145,51.793 118.577,51.549 118.805 C 51.305 119.032,50.519 119.506,49.803 119.859 C 49.086 120.212,48.455 120.554,48.400 120.620 C 48.345 120.685,47.631 121.214,46.814 121.794 C 45.436 122.773,44.044 123.942,43.520 124.560 C 43.399 124.702,43.187 124.927,43.048 125.060 C 42.045 126.016,41.048 127.045,39.400 128.825 C 38.355 129.954,37.275 131.110,37.000 131.393 C 35.470 132.968,33.583 135.349,32.081 137.600 C 31.677 138.205,31.085 139.015,30.766 139.400 C 30.064 140.248,30.077 140.229,29.178 141.605 C 28.780 142.213,28.387 142.933,28.303 143.205 C 28.220 143.477,27.757 144.441,27.274 145.347 C 26.792 146.253,26.258 147.423,26.088 147.947 C 25.919 148.471,25.703 149.080,25.610 149.300 C 24.382 152.189,23.828 155.579,23.384 162.928 C 23.153 166.755,23.206 167.617,23.798 169.700 C 23.923 170.140,24.157 171.081,24.318 171.790 C 24.479 172.500,24.730 173.220,24.877 173.390 C 25.117 173.670,26.400 176.279,26.400 176.487 C 26.400 176.838,28.759 179.619,29.465 180.100 C 29.949 180.430,30.858 181.089,31.484 181.565 C 32.925 182.659,34.758 183.622,36.300 184.097 C 36.960 184.300,37.770 184.617,38.100 184.800 C 40.151 185.943,41.159 186.165,44.900 186.296 C 46.880 186.365,49.108 186.515,49.851 186.629 C 51.673 186.909,57.532 186.101,63.300 184.774 C 63.740 184.673,64.813 184.494,65.685 184.377 C 67.161 184.177,68.428 183.710,69.915 182.817 C 70.253 182.613,70.838 182.384,71.215 182.307 C 71.592 182.230,72.845 181.716,74.000 181.164 C 75.155 180.612,76.280 180.090,76.500 180.004 C 77.764 179.510,78.712 179.098,78.800 179.006 C 78.855 178.947,79.620 178.320,80.500 177.611 C 81.380 176.903,82.235 176.214,82.400 176.080 C 82.565 175.947,83.330 175.258,84.100 174.549 C 84.870 173.839,85.770 173.028,86.100 172.746 C 86.430 172.464,87.248 171.753,87.918 171.167 C 88.587 170.580,89.307 169.953,89.518 169.774 C 90.217 169.179,93.699 164.557,94.268 163.469 C 94.431 163.156,94.838 162.597,95.171 162.228 C 95.503 161.858,95.930 161.228,96.120 160.828 C 96.469 160.088,97.398 158.582,97.616 158.400 C 97.683 158.345,97.901 157.850,98.101 157.300 C 98.302 156.750,98.663 156.030,98.903 155.700 C 99.403 155.014,100.400 153.180,100.400 152.947 C 100.400 152.862,100.619 152.456,100.887 152.046 C 101.154 151.636,101.614 150.535,101.910 149.600 C 102.205 148.665,102.588 147.585,102.761 147.200 C 103.667 145.185,105.449 139.715,106.019 137.200 C 106.231 136.265,106.680 134.690,107.017 133.700 C 107.761 131.517,108.109 130.214,108.292 128.932 C 108.368 128.399,108.598 127.572,108.803 127.094 C 109.176 126.223,109.616 124.522,110.380 121.000 C 110.487 120.505,110.666 119.785,110.778 119.400 C 110.891 119.015,111.127 118.160,111.304 117.500 C 111.481 116.840,111.717 115.985,111.828 115.600 C 111.939 115.215,112.119 114.405,112.228 113.800 C 112.336 113.195,112.502 112.520,112.596 112.300 C 112.690 112.080,112.813 111.720,112.870 111.500 C 112.927 111.280,113.127 110.695,113.314 110.200 C 113.501 109.705,113.858 108.400,114.107 107.300 C 114.356 106.200,114.837 104.490,115.176 103.500 C 115.515 102.510,115.942 100.980,116.125 100.100 C 116.308 99.220,116.620 98.050,116.819 97.500 C 117.262 96.275,118.109 92.859,118.305 91.500 C 118.385 90.950,118.517 90.410,118.598 90.300 C 118.680 90.190,118.792 89.875,118.847 89.600 C 118.903 89.325,119.275 87.846,119.674 86.314 C 120.073 84.781,120.400 83.358,120.400 83.152 C 120.400 82.945,120.680 81.949,121.022 80.938 C 121.694 78.954,122.074 77.563,122.288 76.300 C 122.427 75.481,122.728 74.413,123.019 73.700 C 123.234 73.173,124.057 69.497,124.317 67.900 C 124.389 67.460,124.581 66.605,124.744 66.000 C 125.858 61.864,125.919 61.606,126.294 59.400 C 126.692 57.058,126.786 56.709,127.369 55.400 C 127.492 55.125,127.688 54.315,127.806 53.600 C 128.274 50.745,128.404 50.049,128.696 48.800 C 129.259 46.394,129.429 45.509,129.729 43.400 C 129.893 42.245,130.104 40.760,130.198 40.100 C 130.292 39.440,130.469 38.135,130.593 37.200 C 130.717 36.265,131.016 34.960,131.259 34.300 C 131.664 33.198,131.700 32.741,131.700 28.700 C 131.700 24.376,131.680 24.199,130.999 22.500 C 130.031 20.082,128.486 17.702,127.204 16.651 C 124.602 14.517,123.155 14.005,118.900 13.713 C 118.020 13.652,116.490 13.514,115.500 13.405 C 113.472 13.182,107.075 13.182,105.400 13.405 M192.200 88.409 C 189.486 88.567,189.196 88.625,187.700 89.297 C 187.150 89.544,186.250 89.911,185.700 90.113 C 184.036 90.724,180.895 93.567,180.110 95.174 C 179.915 95.573,179.687 96.038,179.603 96.207 C 179.519 96.375,179.384 96.825,179.302 97.207 C 179.221 97.588,179.090 97.990,179.012 98.100 C 178.153 99.311,178.213 103.490,179.120 105.530 C 179.274 105.877,179.400 106.290,179.400 106.449 C 179.400 107.216,181.451 109.818,182.920 110.917 C 183.349 111.238,183.866 111.650,184.070 111.833 C 184.273 112.017,184.678 112.226,184.969 112.299 C 185.260 112.373,186.129 112.730,186.899 113.094 C 188.907 114.043,190.067 114.167,198.000 114.286 C 203.369 114.367,205.292 114.462,205.889 114.674 C 207.127 115.115,209.064 116.418,209.711 117.244 C 210.035 117.658,210.493 118.234,210.728 118.523 C 212.217 120.357,211.491 124.134,209.226 126.329 C 206.957 128.529,206.467 128.598,193.200 128.601 C 180.685 128.603,180.679 128.604,180.306 132.000 C 180.050 134.325,179.896 134.300,194.600 134.300 C 208.120 134.300,207.897 134.317,210.494 133.056 C 211.267 132.680,212.215 132.223,212.600 132.041 C 213.258 131.728,214.020 131.085,215.549 129.551 C 215.906 129.193,216.198 128.846,216.199 128.781 C 216.200 128.716,216.426 128.401,216.701 128.081 C 216.977 127.761,217.346 127.095,217.522 126.600 C 217.698 126.105,217.914 125.520,218.001 125.300 C 218.179 124.849,218.520 123.156,218.709 121.788 C 218.969 119.895,217.907 115.911,216.722 114.340 C 215.291 112.440,213.121 110.684,211.500 110.114 C 210.950 109.920,210.131 109.596,209.681 109.394 C 207.658 108.487,206.719 108.389,198.841 108.270 L 191.300 108.155 190.100 107.599 C 185.402 105.423,184.344 100.192,187.864 96.541 C 188.434 95.951,189.035 95.406,189.200 95.332 C 189.365 95.257,189.815 94.995,190.200 94.748 C 190.899 94.301,190.922 94.300,202.100 94.200 C 215.956 94.076,215.422 94.201,215.377 91.100 C 215.335 88.141,215.676 88.226,203.900 88.247 C 198.840 88.255,193.575 88.328,192.200 88.409 M224.200 88.389 C 222.579 88.622,222.253 89.006,222.154 90.800 C 221.982 93.927,222.124 93.983,230.700 94.170 C 237.048 94.308,237.389 94.362,237.721 95.290 C 237.802 95.516,237.929 102.045,238.003 109.800 C 238.122 122.123,238.181 124.026,238.469 124.900 C 239.690 128.597,241.528 131.053,244.000 132.289 C 244.715 132.647,245.615 133.114,246.000 133.328 C 247.643 134.239,252.237 134.677,254.075 134.099 C 255.397 133.683,255.686 133.230,255.562 131.765 C 255.368 129.451,254.447 128.769,251.035 128.414 C 248.611 128.161,247.744 127.695,246.470 125.959 L 245.700 124.910 245.700 109.978 L 245.700 95.045 246.200 94.629 C 246.682 94.228,246.920 94.213,252.853 94.207 C 256.237 94.203,259.162 94.120,259.353 94.022 C 259.544 93.924,260.033 93.681,260.441 93.482 C 261.800 92.816,261.796 89.383,260.435 88.680 C 259.682 88.291,226.721 88.026,224.200 88.389 M268.030 88.340 C 266.397 88.465,265.800 89.253,265.800 91.283 C 265.800 93.607,266.819 94.136,271.400 94.192 C 274.576 94.231,275.208 94.431,275.529 95.500 C 275.828 96.496,275.910 127.400,275.613 127.400 C 275.511 127.400,275.373 127.570,275.307 127.779 C 275.148 128.280,273.555 128.548,269.930 128.682 C 266.850 128.796,266.741 128.839,266.173 130.164 C 265.237 132.347,265.822 133.931,267.675 134.235 C 269.383 134.515,291.042 134.403,291.863 134.110 C 293.423 133.554,293.881 132.174,293.072 130.469 C 292.367 128.983,291.831 128.788,288.085 128.655 L 284.742 128.537 284.071 127.948 L 283.400 127.359 283.400 111.692 C 283.400 101.692,283.473 95.835,283.601 95.498 C 284.032 94.364,284.208 94.309,287.787 94.189 C 292.804 94.020,293.688 93.412,293.291 90.400 C 293.008 88.247,293.430 88.316,280.300 88.285 C 274.140 88.270,268.618 88.295,268.030 88.340 M314.100 88.401 C 312.670 88.474,311.320 88.602,311.100 88.685 C 310.672 88.847,310.410 88.957,309.000 89.568 C 308.505 89.783,307.781 90.090,307.392 90.252 C 307.003 90.413,306.553 90.675,306.392 90.836 C 306.231 90.996,305.710 91.409,305.234 91.753 C 304.758 92.098,303.998 92.902,303.545 93.540 C 303.093 94.178,302.671 94.745,302.607 94.800 C 302.453 94.933,302.030 95.894,301.637 97.000 C 301.356 97.793,301.310 100.011,301.251 115.639 L 301.184 133.377 301.642 133.619 C 301.894 133.751,302.165 133.959,302.244 134.080 C 302.555 134.555,306.618 134.323,307.444 133.784 L 308.185 133.300 308.266 125.900 C 308.311 121.830,308.414 118.167,308.495 117.759 C 308.788 116.278,308.545 116.315,319.000 116.182 C 324.115 116.117,328.525 115.990,328.800 115.901 C 330.411 115.379,331.076 113.820,330.474 111.978 C 329.909 110.251,330.286 110.311,319.700 110.250 C 307.290 110.178,308.200 110.549,308.200 105.550 C 308.201 100.619,308.949 97.332,310.331 96.197 C 312.799 94.169,312.543 94.210,322.544 94.205 L 330.988 94.200 332.080 93.700 C 333.321 93.133,333.452 92.884,333.445 91.114 C 333.433 88.230,333.294 88.189,323.827 88.234 C 319.907 88.253,315.530 88.328,314.100 88.401 M342.125 88.362 C 339.823 88.508,339.745 88.855,339.856 98.400 C 339.943 105.911,340.073 107.343,340.806 108.860 C 341.023 109.308,341.200 109.772,341.200 109.891 C 341.200 110.208,342.415 112.644,342.731 112.960 C 342.881 113.109,343.099 113.411,343.217 113.631 C 343.504 114.168,343.956 114.722,344.816 115.593 C 346.407 117.203,347.163 117.706,351.056 119.744 C 351.362 119.904,352.262 120.152,353.056 120.294 C 355.474 120.728,355.780 120.908,356.663 122.418 L 357.200 123.335 357.200 128.266 L 357.200 133.197 358.030 133.799 C 358.927 134.448,359.375 134.503,361.851 134.270 C 362.976 134.163,363.304 134.044,363.815 133.555 L 364.429 132.969 364.329 129.234 C 364.135 121.977,364.655 120.776,368.200 120.301 C 369.183 120.169,370.781 119.546,372.200 118.742 C 372.475 118.587,373.054 118.288,373.486 118.080 C 373.918 117.871,374.616 117.385,375.037 117.000 C 375.457 116.615,376.103 116.054,376.471 115.754 C 376.838 115.454,377.398 114.824,377.713 114.354 C 378.028 113.884,378.542 113.166,378.854 112.757 C 379.167 112.349,379.646 111.449,379.919 110.757 C 380.506 109.273,380.779 108.632,381.035 108.134 C 382.181 105.907,381.988 88.800,380.817 88.800 C 380.631 88.800,380.367 88.688,380.230 88.550 C 379.849 88.169,376.485 88.248,375.572 88.659 C 374.367 89.202,374.334 89.426,374.186 97.900 C 374.113 102.080,373.960 105.905,373.845 106.400 C 373.463 108.061,373.164 108.897,372.810 109.300 C 372.616 109.520,372.287 110.011,372.079 110.391 C 371.167 112.052,369.061 113.672,366.600 114.602 C 366.215 114.748,365.798 114.944,365.674 115.038 C 364.276 116.096,357.909 116.082,355.824 115.017 C 354.747 114.466,354.590 114.400,354.353 114.393 C 353.381 114.367,350.431 112.051,349.560 110.630 C 349.314 110.229,348.973 109.747,348.801 109.561 C 348.510 109.243,348.115 108.185,347.583 106.300 C 347.442 105.803,347.318 102.623,347.254 97.916 C 347.119 87.962,347.162 88.042,342.125 88.362 M140.400 88.710 C 139.685 88.851,138.650 89.114,138.100 89.293 C 137.550 89.473,136.267 89.833,135.248 90.094 C 134.229 90.355,132.946 90.845,132.395 91.184 C 131.844 91.523,131.310 91.800,131.208 91.800 C 130.858 91.800,129.145 92.797,128.288 93.499 C 127.817 93.885,127.338 94.200,127.223 94.200 C 127.017 94.200,124.772 96.394,123.411 97.925 C 123.033 98.351,122.281 99.465,121.741 100.400 C 121.201 101.335,120.679 102.198,120.581 102.318 C 120.118 102.888,119.392 105.647,118.694 109.486 C 118.404 111.081,118.577 114.415,118.990 115.208 C 119.078 115.377,119.214 115.917,119.292 116.408 C 119.560 118.098,120.485 120.698,120.998 121.200 C 121.054 121.255,121.352 121.795,121.660 122.400 C 122.467 123.987,126.378 128.400,126.977 128.400 C 127.088 128.400,127.432 128.624,127.740 128.897 C 128.048 129.170,128.407 129.484,128.539 129.594 C 128.670 129.704,129.300 130.039,129.939 130.337 C 130.577 130.636,131.145 130.942,131.200 131.018 C 131.437 131.345,133.069 132.047,134.622 132.490 C 135.545 132.753,136.795 133.143,137.400 133.358 C 139.494 134.101,141.099 134.264,146.199 134.249 C 151.471 134.233,152.143 134.145,155.410 133.037 C 156.339 132.721,157.635 132.293,158.290 132.086 C 158.944 131.878,159.754 131.522,160.090 131.294 C 160.425 131.067,161.295 130.592,162.022 130.238 C 162.748 129.884,163.513 129.404,163.722 129.171 C 163.930 128.939,164.437 128.534,164.848 128.273 C 166.141 127.451,169.301 123.970,170.003 122.593 C 170.219 122.170,170.605 121.516,170.859 121.141 C 171.114 120.766,171.575 119.658,171.883 118.680 C 172.192 117.701,172.610 116.405,172.813 115.800 C 173.824 112.773,173.196 106.412,171.583 103.353 C 171.482 103.162,171.400 102.917,171.400 102.810 C 171.400 100.741,164.497 93.488,161.200 92.092 C 160.705 91.882,160.255 91.653,160.200 91.582 C 160.145 91.512,159.898 91.391,159.650 91.313 C 159.403 91.236,159.200 91.089,159.200 90.987 C 159.200 90.884,159.038 90.800,158.840 90.800 C 158.642 90.800,158.395 90.723,158.290 90.629 C 158.186 90.535,157.425 90.301,156.600 90.110 C 155.775 89.918,154.425 89.550,153.600 89.291 C 150.648 88.366,143.696 88.060,140.400 88.710 M151.800 94.611 C 152.185 94.746,152.898 95.037,153.385 95.259 C 153.872 95.482,154.833 95.860,155.520 96.100 C 159.902 97.631,164.527 102.998,165.505 107.688 C 166.055 110.322,165.678 116.866,164.959 117.167 C 164.872 117.203,164.800 117.361,164.800 117.517 C 164.800 117.673,164.710 117.800,164.600 117.800 C 164.490 117.800,164.400 117.889,164.400 117.999 C 164.400 118.340,163.713 119.800,163.553 119.800 C 163.469 119.800,163.400 119.903,163.400 120.029 C 163.400 120.234,163.069 120.676,161.626 122.400 C 160.952 123.205,160.873 123.283,160.375 123.637 C 160.114 123.822,159.285 124.426,158.534 124.978 C 157.783 125.531,156.973 126.040,156.734 126.109 C 156.495 126.178,155.580 126.577,154.700 126.996 C 150.218 129.127,141.380 129.135,136.900 127.012 C 136.020 126.595,134.985 126.110,134.600 125.935 C 134.215 125.759,133.585 125.342,133.200 125.008 C 132.815 124.674,132.424 124.401,132.331 124.400 C 132.184 124.400,129.994 122.223,129.314 121.400 C 128.729 120.692,127.843 119.261,127.704 118.800 C 127.622 118.525,127.396 117.985,127.203 117.600 C 126.500 116.197,126.386 115.880,126.189 114.800 C 125.563 111.365,125.886 108.071,127.102 105.509 C 127.486 104.700,127.800 103.938,127.800 103.815 C 127.800 102.396,133.688 96.809,135.700 96.319 C 136.030 96.239,136.930 95.877,137.700 95.516 C 139.244 94.790,140.434 94.444,141.800 94.323 C 143.691 94.155,151.105 94.369,151.800 94.611 M57.876 130.494 C 57.855 132.138,57.762 132.605,57.133 134.236 C 56.738 135.261,56.354 136.505,56.279 137.000 C 56.204 137.495,55.787 139.295,55.352 141.000 C 54.636 143.799,54.426 144.758,53.794 148.100 C 53.542 149.429,53.113 151.187,52.621 152.900 C 52.400 153.670,52.115 154.840,51.988 155.500 C 51.861 156.160,51.488 157.555,51.159 158.600 C 50.831 159.645,50.432 161.085,50.274 161.800 C 49.793 163.972,49.668 164.431,49.047 166.300 C 48.718 167.290,48.293 168.640,48.103 169.300 C 46.624 174.435,44.374 176.081,41.995 173.772 C 41.558 173.348,41.200 172.865,41.200 172.700 C 41.200 172.535,41.133 172.399,41.050 172.398 C 40.844 172.395,40.260 171.052,40.095 170.200 C 40.020 169.815,39.876 169.140,39.774 168.700 C 39.392 167.051,39.240 165.100,39.416 164.109 C 39.641 162.845,39.948 160.170,40.204 157.259 C 40.380 155.243,40.655 154.083,41.021 153.800 C 41.093 153.745,41.443 152.800,41.801 151.700 C 42.158 150.600,42.655 149.250,42.904 148.700 C 43.154 148.150,43.608 146.980,43.913 146.100 C 44.218 145.220,44.678 144.162,44.937 143.749 C 45.479 142.882,46.400 140.918,46.400 140.629 C 46.400 140.522,46.472 140.403,46.559 140.367 C 46.814 140.260,48.400 137.959,48.400 137.695 C 48.400 137.564,48.708 137.129,49.085 136.730 C 49.461 136.331,49.928 135.644,50.122 135.204 C 50.317 134.763,50.616 134.358,50.788 134.304 C 50.960 134.249,51.325 133.917,51.600 133.567 C 51.875 133.216,53.225 131.785,54.600 130.387 C 57.685 127.250,57.917 127.258,57.876 130.494 " stroke="#fff" fill="#221d4d" fill-rule="evenodd"></path><path id="path1" d="M0.000 100.000 L 0.000 200.000 200.000 200.000 L 400.000 200.000 400.000 100.000 L 400.000 0.000 200.000 0.000 L 0.000 0.000 0.000 100.000 M115.500 13.405 C 116.490 13.514,118.020 13.652,118.900 13.713 C 123.155 14.005,124.602 14.517,127.204 16.651 C 128.486 17.702,130.031 20.082,130.999 22.500 C 131.680 24.199,131.700 24.376,131.700 28.700 C 131.700 32.741,131.664 33.198,131.259 34.300 C 131.016 34.960,130.717 36.265,130.593 37.200 C 130.469 38.135,130.292 39.440,130.198 40.100 C 129.361 45.991,129.381 45.873,128.696 48.800 C 128.404 50.049,128.274 50.745,127.806 53.600 C 127.688 54.315,127.492 55.125,127.369 55.400 C 126.786 56.709,126.692 57.058,126.294 59.400 C 125.919 61.606,125.858 61.864,124.744 66.000 C 124.581 66.605,124.389 67.460,124.317 67.900 C 124.057 69.497,123.234 73.173,123.019 73.700 C 122.728 74.413,122.427 75.481,122.288 76.300 C 122.074 77.563,121.694 78.954,121.022 80.938 C 120.680 81.949,120.400 82.945,120.400 83.152 C 120.400 83.358,120.073 84.781,119.674 86.314 C 119.275 87.846,118.903 89.325,118.847 89.600 C 118.792 89.875,118.680 90.190,118.598 90.300 C 118.517 90.410,118.385 90.950,118.305 91.500 C 118.109 92.859,117.262 96.275,116.819 97.500 C 116.620 98.050,116.308 99.220,116.125 100.100 C 115.942 100.980,115.515 102.510,115.176 103.500 C 114.837 104.490,114.356 106.200,114.107 107.300 C 113.858 108.400,113.501 109.705,113.314 110.200 C 113.127 110.695,112.927 111.280,112.870 111.500 C 112.813 111.720,112.690 112.080,112.596 112.300 C 112.502 112.520,112.336 113.195,112.228 113.800 C 112.119 114.405,111.939 115.215,111.828 115.600 C 111.717 115.985,111.481 116.840,111.304 117.500 C 111.127 118.160,110.891 119.015,110.778 119.400 C 110.666 119.785,110.487 120.505,110.380 121.000 C 109.616 124.522,109.176 126.223,108.803 127.094 C 108.598 127.572,108.368 128.399,108.292 128.932 C 108.109 130.214,107.761 131.517,107.017 133.700 C 106.680 134.690,106.231 136.265,106.019 137.200 C 105.449 139.715,103.667 145.185,102.761 147.200 C 102.588 147.585,102.205 148.665,101.910 149.600 C 101.614 150.535,101.154 151.636,100.887 152.046 C 100.619 152.456,100.400 152.862,100.400 152.947 C 100.400 153.180,99.403 155.014,98.903 155.700 C 98.663 156.030,98.302 156.750,98.101 157.300 C 97.901 157.850,97.683 158.345,97.616 158.400 C 97.398 158.582,96.469 160.088,96.120 160.828 C 95.930 161.228,95.503 161.858,95.171 162.228 C 94.838 162.597,94.431 163.156,94.268 163.469 C 93.699 164.557,90.217 169.179,89.518 169.774 C 89.307 169.953,88.587 170.580,87.918 171.167 C 87.248 171.753,86.430 172.464,86.100 172.746 C 85.770 173.028,84.870 173.839,84.100 174.549 C 83.330 175.258,82.565 175.947,82.400 176.080 C 82.235 176.214,81.380 176.903,80.500 177.611 C 79.620 178.320,78.855 178.947,78.800 179.006 C 78.712 179.098,77.764 179.510,76.500 180.004 C 76.280 180.090,75.155 180.612,74.000 181.164 C 72.845 181.716,71.592 182.230,71.215 182.307 C 70.838 182.384,70.253 182.613,69.915 182.817 C 68.428 183.710,67.161 184.177,65.685 184.377 C 64.813 184.494,63.740 184.673,63.300 184.774 C 57.532 186.101,51.673 186.909,49.851 186.629 C 49.108 186.515,46.880 186.365,44.900 186.296 C 41.159 186.165,40.151 185.943,38.100 184.800 C 37.770 184.617,36.960 184.300,36.300 184.097 C 34.758 183.622,32.925 182.659,31.484 181.565 C 30.858 181.089,29.949 180.430,29.465 180.100 C 28.759 179.619,26.400 176.838,26.400 176.487 C 26.400 176.279,25.117 173.670,24.877 173.390 C 24.730 173.220,24.479 172.500,24.318 171.790 C 24.157 171.081,23.923 170.140,23.798 169.700 C 23.206 167.617,23.153 166.755,23.384 162.928 C 23.828 155.579,24.382 152.189,25.610 149.300 C 25.703 149.080,25.919 148.471,26.088 147.947 C 26.258 147.423,26.792 146.253,27.274 145.347 C 27.757 144.441,28.220 143.477,28.303 143.205 C 28.387 142.933,28.780 142.213,29.178 141.605 C 30.077 140.229,30.064 140.248,30.766 139.400 C 31.085 139.015,31.677 138.205,32.081 137.600 C 33.583 135.349,35.470 132.968,37.000 131.393 C 37.275 131.110,38.355 129.954,39.400 128.825 C 41.048 127.045,42.045 126.016,43.048 125.060 C 43.187 124.927,43.399 124.702,43.520 124.560 C 44.044 123.942,45.436 122.773,46.814 121.794 C 47.631 121.214,48.345 120.685,48.400 120.620 C 48.455 120.554,49.086 120.212,49.803 119.859 C 50.519 119.506,51.305 119.032,51.549 118.805 C 51.793 118.577,52.467 118.145,53.046 117.844 C 53.626 117.544,54.415 117.064,54.800 116.779 C 55.185 116.495,56.085 115.914,56.800 115.490 C 57.515 115.065,58.219 114.601,58.364 114.459 C 58.510 114.316,58.711 114.200,58.812 114.200 C 58.997 114.200,59.429 113.878,60.355 113.050 C 60.632 112.803,60.923 112.600,61.003 112.600 C 61.291 112.600,62.176 111.031,62.314 110.275 C 62.391 109.849,62.616 109.140,62.814 108.700 C 63.265 107.695,63.976 104.848,64.312 102.700 C 64.381 102.260,64.600 101.405,64.798 100.800 C 64.997 100.195,65.313 98.980,65.501 98.100 C 65.690 97.220,65.918 96.230,66.008 95.900 C 66.098 95.570,66.229 94.895,66.299 94.400 C 66.369 93.905,66.612 92.915,66.839 92.200 C 67.377 90.504,67.529 89.916,68.074 87.400 C 68.325 86.245,68.671 84.985,68.845 84.600 C 69.339 83.505,69.586 82.661,70.080 80.394 C 70.333 79.236,70.685 77.976,70.863 77.594 C 71.275 76.709,71.535 75.671,72.192 72.300 C 72.402 71.221,72.659 70.253,72.963 69.400 C 73.022 69.235,73.183 68.560,73.320 67.900 C 73.457 67.240,73.666 66.295,73.785 65.800 C 73.903 65.305,74.135 64.225,74.300 63.400 C 74.793 60.932,74.847 60.709,75.001 60.500 C 75.236 60.182,75.742 57.486,75.997 55.200 C 76.126 54.045,76.319 52.515,76.426 51.800 C 77.216 46.520,77.220 47.300,76.386 44.200 C 75.609 41.313,71.010 40.854,66.457 43.209 C 65.604 43.651,64.545 44.117,64.103 44.246 C 63.661 44.375,62.895 44.703,62.400 44.976 C 61.497 45.473,61.125 45.661,58.900 46.747 C 58.240 47.069,57.520 47.427,57.300 47.543 C 57.080 47.659,56.675 47.847,56.400 47.961 C 56.125 48.075,55.363 48.404,54.707 48.693 C 54.051 48.981,53.196 49.296,52.807 49.391 C 52.418 49.487,51.566 49.711,50.912 49.890 C 47.680 50.774,45.007 50.696,44.144 49.692 C 42.783 48.110,43.531 45.251,45.921 42.906 C 47.250 41.602,48.462 40.535,49.029 40.171 C 49.321 39.984,50.086 39.317,50.729 38.688 C 51.852 37.593,53.086 36.555,54.286 35.700 C 55.023 35.175,58.026 32.787,58.364 32.457 C 58.510 32.316,58.710 32.200,58.810 32.200 C 58.910 32.200,59.483 31.886,60.082 31.503 C 61.655 30.497,64.465 28.867,66.200 27.954 C 67.025 27.520,67.835 27.044,68.000 26.897 C 68.165 26.750,68.975 26.286,69.800 25.866 C 70.625 25.447,71.424 24.985,71.576 24.840 C 71.727 24.696,72.627 24.191,73.576 23.718 C 74.524 23.246,75.570 22.711,75.900 22.531 C 76.230 22.350,76.597 22.202,76.716 22.201 C 76.835 22.201,77.375 21.975,77.916 21.701 C 78.457 21.426,78.976 21.201,79.069 21.201 C 79.162 21.200,79.477 21.032,79.769 20.826 C 80.061 20.621,80.525 20.385,80.800 20.302 C 81.075 20.219,82.110 19.770,83.100 19.302 C 84.090 18.835,85.125 18.393,85.400 18.320 C 85.675 18.246,86.238 18.099,86.650 17.993 C 88.502 17.516,89.166 17.304,90.123 16.882 C 90.685 16.633,91.675 16.325,92.323 16.196 C 92.970 16.067,93.860 15.876,94.300 15.771 C 94.740 15.667,95.550 15.489,96.100 15.377 C 96.650 15.264,97.505 15.035,98.000 14.867 C 98.495 14.699,99.665 14.427,100.600 14.263 C 101.535 14.098,102.750 13.871,103.300 13.758 C 105.972 13.208,112.095 13.031,115.500 13.405 M214.094 88.576 C 215.226 88.970,215.350 89.215,215.377 91.100 C 215.422 94.201,215.956 94.076,202.100 94.200 C 190.922 94.300,190.899 94.301,190.200 94.748 C 189.815 94.995,189.365 95.257,189.200 95.332 C 189.035 95.406,188.434 95.951,187.864 96.541 C 184.344 100.192,185.402 105.423,190.100 107.599 L 191.300 108.155 198.841 108.270 C 206.719 108.389,207.658 108.487,209.681 109.394 C 210.131 109.596,210.950 109.920,211.500 110.114 C 213.121 110.684,215.291 112.440,216.722 114.340 C 217.907 115.911,218.969 119.895,218.709 121.788 C 218.520 123.156,218.179 124.849,218.001 125.300 C 217.914 125.520,217.698 126.105,217.522 126.600 C 217.346 127.095,216.977 127.761,216.701 128.081 C 216.426 128.401,216.200 128.716,216.199 128.781 C 216.198 128.846,215.906 129.193,215.549 129.551 C 214.020 131.085,213.258 131.728,212.600 132.041 C 212.215 132.223,211.267 132.680,210.494 133.056 C 207.897 134.317,208.120 134.300,194.600 134.300 C 179.896 134.300,180.050 134.325,180.306 132.000 C 180.679 128.604,180.685 128.603,193.200 128.601 C 206.467 128.598,206.957 128.529,209.226 126.329 C 211.491 124.134,212.217 120.357,210.728 118.523 C 210.493 118.234,210.035 117.658,209.711 117.244 C 209.064 116.418,207.127 115.115,205.889 114.674 C 205.292 114.462,203.369 114.367,198.000 114.286 C 190.067 114.167,188.907 114.043,186.899 113.094 C 186.129 112.730,185.260 112.373,184.969 112.299 C 184.678 112.226,184.273 112.017,184.070 111.833 C 183.866 111.650,183.349 111.238,182.920 110.917 C 181.451 109.818,179.400 107.216,179.400 106.449 C 179.400 106.290,179.274 105.877,179.120 105.530 C 178.213 103.490,178.153 99.311,179.012 98.100 C 179.090 97.990,179.221 97.588,179.302 97.207 C 179.384 96.825,179.519 96.375,179.603 96.207 C 179.687 96.038,179.915 95.573,180.110 95.174 C 180.895 93.567,184.036 90.724,185.700 90.113 C 186.250 89.911,187.150 89.544,187.700 89.297 C 189.769 88.367,191.288 88.269,203.900 88.247 C 212.128 88.232,213.205 88.267,214.094 88.576 M260.435 88.680 C 261.796 89.383,261.800 92.816,260.441 93.482 C 260.033 93.681,259.544 93.924,259.353 94.022 C 259.162 94.120,256.237 94.203,252.853 94.207 C 246.920 94.213,246.682 94.228,246.200 94.629 L 245.700 95.045 245.700 109.978 L 245.700 124.910 246.470 125.959 C 247.744 127.695,248.611 128.161,251.035 128.414 C 254.447 128.769,255.368 129.451,255.562 131.765 C 255.686 133.230,255.397 133.683,254.075 134.099 C 252.237 134.677,247.643 134.239,246.000 133.328 C 245.615 133.114,244.715 132.647,244.000 132.289 C 242.371 131.474,240.496 129.555,239.715 127.900 C 238.034 124.341,238.156 125.629,238.003 109.800 C 237.929 102.045,237.802 95.516,237.721 95.290 C 237.389 94.362,237.048 94.308,230.700 94.170 C 222.124 93.983,221.982 93.927,222.154 90.800 C 222.253 89.006,222.579 88.622,224.200 88.389 C 226.721 88.026,259.682 88.291,260.435 88.680 M292.100 88.603 C 292.923 89.003,293.153 89.351,293.291 90.400 C 293.688 93.412,292.804 94.020,287.787 94.189 C 284.208 94.309,284.032 94.364,283.601 95.498 C 283.473 95.835,283.400 101.692,283.400 111.692 L 283.400 127.359 284.071 127.948 L 284.742 128.537 288.085 128.655 C 291.831 128.788,292.367 128.983,293.072 130.469 C 293.881 132.174,293.423 133.554,291.863 134.110 C 291.042 134.403,269.383 134.515,267.675 134.235 C 265.822 133.931,265.237 132.347,266.173 130.164 C 266.741 128.839,266.850 128.796,269.930 128.682 C 273.555 128.548,275.148 128.280,275.307 127.779 C 275.373 127.570,275.511 127.400,275.613 127.400 C 275.910 127.400,275.828 96.496,275.529 95.500 C 275.208 94.431,274.576 94.231,271.400 94.192 C 266.819 94.136,265.800 93.607,265.800 91.283 C 265.800 89.253,266.397 88.465,268.030 88.340 C 271.190 88.098,291.518 88.320,292.100 88.603 M331.996 88.536 C 333.224 88.933,333.437 89.313,333.445 91.114 C 333.452 92.884,333.321 93.133,332.080 93.700 L 330.988 94.200 322.544 94.205 C 312.543 94.210,312.799 94.169,310.331 96.197 C 308.949 97.332,308.201 100.619,308.200 105.550 C 308.200 110.549,307.290 110.178,319.700 110.250 C 330.286 110.311,329.909 110.251,330.474 111.978 C 331.076 113.820,330.411 115.379,328.800 115.901 C 328.525 115.990,324.115 116.117,319.000 116.182 C 308.545 116.315,308.788 116.278,308.495 117.759 C 308.414 118.167,308.311 121.830,308.266 125.900 L 308.185 133.300 307.444 133.784 C 306.618 134.323,302.555 134.555,302.244 134.080 C 302.165 133.959,301.894 133.751,301.642 133.619 L 301.184 133.377 301.251 115.639 C 301.310 100.011,301.356 97.793,301.637 97.000 C 302.030 95.894,302.453 94.933,302.607 94.800 C 302.671 94.745,303.093 94.178,303.545 93.540 C 303.998 92.902,304.758 92.098,305.234 91.753 C 305.710 91.409,306.231 90.996,306.392 90.836 C 306.553 90.675,307.003 90.413,307.392 90.252 C 307.781 90.090,308.505 89.783,309.000 89.568 C 310.410 88.957,310.672 88.847,311.100 88.685 C 312.490 88.160,330.436 88.033,331.996 88.536 M346.150 88.763 C 347.077 89.280,347.144 89.840,347.254 97.916 C 347.318 102.623,347.442 105.803,347.583 106.300 C 348.115 108.185,348.510 109.243,348.801 109.561 C 348.973 109.747,349.314 110.229,349.560 110.630 C 350.431 112.051,353.381 114.367,354.353 114.393 C 354.590 114.400,354.747 114.466,355.824 115.017 C 357.909 116.082,364.276 116.096,365.674 115.038 C 365.798 114.944,366.215 114.748,366.600 114.602 C 369.061 113.672,371.167 112.052,372.079 110.391 C 372.287 110.011,372.616 109.520,372.810 109.300 C 373.164 108.897,373.463 108.061,373.845 106.400 C 373.960 105.905,374.113 102.080,374.186 97.900 C 374.334 89.426,374.367 89.202,375.572 88.659 C 376.485 88.248,379.849 88.169,380.230 88.550 C 380.367 88.688,380.631 88.800,380.817 88.800 C 381.988 88.800,382.181 105.907,381.035 108.134 C 380.779 108.632,380.506 109.273,379.919 110.757 C 379.646 111.449,379.167 112.349,378.854 112.757 C 378.542 113.166,378.028 113.884,377.713 114.354 C 377.398 114.824,376.838 115.454,376.471 115.754 C 376.103 116.054,375.457 116.615,375.037 117.000 C 374.616 117.385,373.918 117.871,373.486 118.080 C 373.054 118.288,372.475 118.587,372.200 118.742 C 370.781 119.546,369.183 120.169,368.200 120.301 C 364.655 120.776,364.135 121.977,364.329 129.234 L 364.429 132.969 363.815 133.555 C 363.304 134.044,362.976 134.163,361.851 134.270 C 359.375 134.503,358.927 134.448,358.030 133.799 L 357.200 133.197 357.200 128.266 L 357.200 123.335 356.663 122.418 C 355.780 120.908,355.474 120.728,353.056 120.294 C 352.262 120.152,351.362 119.904,351.056 119.744 C 347.163 117.706,346.407 117.203,344.816 115.593 C 343.956 114.722,343.504 114.168,343.217 113.631 C 343.099 113.411,342.881 113.109,342.731 112.960 C 342.415 112.644,341.200 110.208,341.200 109.891 C 341.200 109.772,341.023 109.308,340.806 108.860 C 340.073 107.343,339.943 105.911,339.856 98.400 C 339.745 88.855,339.823 88.508,342.125 88.362 C 343.566 88.270,345.636 88.477,346.150 88.763 M150.913 88.611 C 151.566 88.726,152.775 89.033,153.600 89.291 C 154.425 89.550,155.775 89.918,156.600 90.110 C 157.425 90.301,158.186 90.535,158.290 90.629 C 158.395 90.723,158.642 90.800,158.840 90.800 C 159.038 90.800,159.200 90.884,159.200 90.987 C 159.200 91.089,159.403 91.236,159.650 91.313 C 159.898 91.391,160.145 91.512,160.200 91.582 C 160.255 91.653,160.705 91.882,161.200 92.092 C 164.497 93.488,171.400 100.741,171.400 102.810 C 171.400 102.917,171.482 103.162,171.583 103.353 C 173.196 106.412,173.824 112.773,172.813 115.800 C 172.610 116.405,172.192 117.701,171.883 118.680 C 171.575 119.658,171.114 120.766,170.859 121.141 C 170.605 121.516,170.219 122.170,170.003 122.593 C 169.301 123.970,166.141 127.451,164.848 128.273 C 164.437 128.534,163.930 128.939,163.722 129.171 C 163.513 129.404,162.748 129.884,162.022 130.238 C 161.295 130.592,160.425 131.067,160.090 131.294 C 159.754 131.522,158.944 131.878,158.290 132.086 C 157.635 132.293,156.339 132.721,155.410 133.037 C 152.143 134.145,151.471 134.233,146.199 134.249 C 141.099 134.264,139.494 134.101,137.400 133.358 C 136.795 133.143,135.545 132.753,134.622 132.490 C 133.069 132.047,131.437 131.345,131.200 131.018 C 131.145 130.942,130.577 130.636,129.939 130.337 C 129.300 130.039,128.670 129.704,128.539 129.594 C 128.407 129.484,128.048 129.170,127.740 128.897 C 127.432 128.624,127.088 128.400,126.977 128.400 C 126.378 128.400,122.467 123.987,121.660 122.400 C 121.352 121.795,121.054 121.255,120.998 121.200 C 120.485 120.698,119.560 118.098,119.292 116.408 C 119.214 115.917,119.078 115.377,118.990 115.208 C 118.577 114.415,118.404 111.081,118.694 109.486 C 119.392 105.647,120.118 102.888,120.581 102.318 C 120.679 102.198,121.201 101.335,121.741 100.400 C 122.281 99.465,123.033 98.351,123.411 97.925 C 124.772 96.394,127.017 94.200,127.223 94.200 C 127.338 94.200,127.817 93.885,128.288 93.499 C 129.145 92.797,130.858 91.800,131.208 91.800 C 131.310 91.800,131.844 91.523,132.395 91.184 C 132.946 90.845,134.229 90.355,135.248 90.094 C 136.267 89.833,137.550 89.473,138.100 89.293 C 140.646 88.462,147.898 88.076,150.913 88.611 M141.800 94.323 C 140.434 94.444,139.244 94.790,137.700 95.516 C 136.930 95.877,136.030 96.239,135.700 96.319 C 133.688 96.809,127.800 102.396,127.800 103.815 C 127.800 103.938,127.486 104.700,127.102 105.509 C 125.886 108.071,125.563 111.365,126.189 114.800 C 126.386 115.880,126.500 116.197,127.203 117.600 C 127.396 117.985,127.622 118.525,127.704 118.800 C 127.843 119.261,128.729 120.692,129.314 121.400 C 129.994 122.223,132.184 124.400,132.331 124.400 C 132.424 124.401,132.815 124.674,133.200 125.008 C 133.585 125.342,134.215 125.759,134.600 125.935 C 134.985 126.110,136.020 126.595,136.900 127.012 C 139.044 128.028,139.631 128.160,143.092 128.406 C 148.410 128.784,151.809 128.371,154.700 126.996 C 155.580 126.577,156.495 126.178,156.734 126.109 C 156.973 126.040,157.783 125.531,158.534 124.978 C 159.285 124.426,160.114 123.822,160.375 123.637 C 160.873 123.283,160.952 123.205,161.626 122.400 C 163.069 120.676,163.400 120.234,163.400 120.029 C 163.400 119.903,163.469 119.800,163.553 119.800 C 163.713 119.800,164.400 118.340,164.400 117.999 C 164.400 117.889,164.490 117.800,164.600 117.800 C 164.710 117.800,164.800 117.673,164.800 117.517 C 164.800 117.361,164.872 117.203,164.959 117.167 C 165.678 116.866,166.055 110.322,165.505 107.688 C 164.527 102.998,159.902 97.631,155.520 96.100 C 154.833 95.860,153.872 95.482,153.385 95.259 C 151.566 94.429,151.145 94.367,146.900 94.305 C 144.590 94.271,142.295 94.279,141.800 94.323 M54.600 130.387 C 53.225 131.785,51.875 133.216,51.600 133.567 C 51.325 133.917,50.960 134.249,50.788 134.304 C 50.616 134.358,50.317 134.763,50.122 135.204 C 49.928 135.644,49.461 136.331,49.085 136.730 C 48.708 137.129,48.400 137.564,48.400 137.695 C 48.400 137.959,46.814 140.260,46.559 140.367 C 46.472 140.403,46.400 140.522,46.400 140.629 C 46.400 140.918,45.479 142.882,44.937 143.749 C 44.678 144.162,44.218 145.220,43.913 146.100 C 43.608 146.980,43.154 148.150,42.904 148.700 C 42.655 149.250,42.158 150.600,41.801 151.700 C 41.443 152.800,41.093 153.745,41.021 153.800 C 40.655 154.083,40.380 155.243,40.204 157.259 C 39.948 160.170,39.641 162.845,39.416 164.109 C 39.240 165.100,39.392 167.051,39.774 168.700 C 39.876 169.140,40.020 169.815,40.095 170.200 C 40.260 171.052,40.844 172.395,41.050 172.398 C 41.133 172.399,41.200 172.535,41.200 172.700 C 41.200 172.865,41.558 173.348,41.995 173.772 C 44.374 176.081,46.624 174.435,48.103 169.300 C 48.293 168.640,48.718 167.290,49.047 166.300 C 49.668 164.431,49.793 163.972,50.274 161.800 C 50.432 161.085,50.831 159.645,51.159 158.600 C 51.488 157.555,51.861 156.160,51.988 155.500 C 52.115 154.840,52.400 153.670,52.621 152.900 C 53.113 151.187,53.542 149.429,53.794 148.100 C 54.426 144.758,54.636 143.799,55.352 141.000 C 55.787 139.295,56.204 137.495,56.279 137.000 C 56.354 136.505,56.738 135.261,57.133 134.236 C 58.035 131.898,58.217 128.920,57.500 128.230 C 57.103 127.848,57.082 127.864,54.600 130.387 " stroke="none" fill="none"></path></g></svg>